<?xml version="1.0" encoding="utf-8"?>
<!-- Generator: Adobe Illustrator 16.0.0, SVG Export Plug-In . SVG Version: 6.00 Build 0)  -->
<!DOCTYPE svg PUBLIC "-//W3C//DTD SVG 1.1//EN" "http://www.w3.org/Graphics/SVG/1.1/DTD/svg11.dtd">
<svg version="1.1" id="Capa_1" xmlns="http://www.w3.org/2000/svg" xmlns:xlink="http://www.w3.org/1999/xlink" x="0px" y="0px"
	 width="200px" height="200px" viewBox="0 0 200 200" enable-background="new 0 0 200 200" xml:space="preserve">
<g id="_x38__5_">
	<g>
		<path fill="#FD5252" d="M147.855,82.769L104.73,39.644c-1.299-1.3-3.024-1.856-4.73-1.769c-1.706-0.087-3.431,0.469-4.731,1.769
			L52.15,82.769c-2.444,2.438-2.444,6.4,0,8.838c2.438,2.443,6.4,2.443,8.837,0l32.763-32.77V193.75c0,3.45,2.8,6.25,6.25,6.25
			s6.25-2.8,6.25-6.25V58.837l32.77,32.769c2.438,2.443,6.399,2.443,8.838,0C150.294,89.163,150.294,85.206,147.855,82.769z
			 M162.5,0h-125c-13.806,0-25,11.194-25,25v125c0,13.807,11.194,25,25,25h18.75v-12.5H37.5c-6.9,0-12.5-5.594-12.5-12.5V25
			c0-6.906,5.6-12.5,12.5-12.5h125c6.906,0,12.5,5.594,12.5,12.5v125c0,6.906-5.6,12.5-12.5,12.5h-18.75V175h18.75
			c13.807,0,25-11.193,25-25V25C187.5,11.194,176.307,0,162.5,0z"/>
	</g>
</g>
</svg>
